# xmcd
#
# Track frame offsets:
#	150
#	12750
#	22650
#	33825
#	43350
#	55425
#	65528
#	78886
#	91216
#	101649
#	114107
#	122942
#
# Disc length: 1787 seconds
#
# Revision: 1
# Processed by: cddbd v1.5.2PL0 Copyright (c) Steve Scherf et al.
# Submitted via: audiograbber 1.83.01
#
DISCID=8d06f90c
DTITLE=Jim Reeves - Distant Drums
DYEAR=1966
DGENRE=Country
TTITLE0=Distant Drums
TTITLE1=Is It Really Over?
TTITLE2=I Missed Me
TTITLE3=Snow Flake
TTITLE4=A Letter To My Heart
TTITLE5=Losing Your Love
TTITLE6=This Is It
TTITLE7=Not Until The Next Time
TTITLE8=Good Morning Self
TTITLE9=Where Dose A Broken Heart Go?
TTITLE10=Overnight
TTITLE11=The Gods Were Angry With Me
EXTD=
EXTT0=
EXTT1=
EXTT2=
EXTT3=
EXTT4=
EXTT5=
EXTT6=
EXTT7=
EXTT8=
EXTT9=
EXTT10=
EXTT11=
PLAYORDER=
